<svg width="20" height="20" viewBox="0 0 20 20" fill="" xmlns="http://www.w3.org/2000/svg">
<path d="M19.75 10C19.747 7.4152 18.7189 4.9371 16.8913 3.1093C15.0636 1.28149 12.5856 0.253231 10.0008 0.25006L10.0005 0.25H10C7.41414 0.25 4.93419 1.27723 3.10571 3.10571C1.27723 4.93419 0.25 7.41414 0.25 10C0.25 12.5859 1.27723 15.0658 3.10571 16.8943C4.93419 18.7228 7.41414 19.75 10 19.75H10.0005L10.0008 19.7499C12.5856 19.7468 15.0636 18.7185 16.8913 16.8907C18.7189 15.0629 19.747 12.5848 19.75 10ZM18.212 9.25H14.723C14.6173 6.79943 13.9568 4.4048 12.7913 2.24652C14.2665 2.77892 15.5596 3.72024 16.5195 4.96044C17.4794 6.20065 18.0665 7.68848 18.212 9.25ZM8.811 17.5547C7.58439 15.4878 6.88479 13.1509 6.7738 10.75H13.2264C13.1154 13.1513 12.4155 15.4885 11.1884 17.5557C11.0631 17.7583 10.8881 17.9255 10.68 18.0414C10.4719 18.1573 10.2377 18.2181 9.99944 18.218C9.76123 18.2179 9.527 18.1569 9.319 18.0408C9.111 17.9247 8.93613 17.7574 8.811 17.5547V17.5547ZM6.7738 9.25C6.88484 6.84892 7.58444 4.51196 8.811 2.44482C8.92973 2.234 9.10239 2.05854 9.31127 1.93645C9.52016 1.81435 9.75776 1.75 9.99972 1.75C10.2417 1.75 10.4793 1.81435 10.6882 1.93645C10.8971 2.05854 11.0697 2.234 11.1884 2.44482C12.4154 4.51182 13.1153 6.84883 13.2264 9.25H6.7738ZM7.208 2.24677C6.04265 4.405 5.38223 6.79953 5.27649 9.25H1.788C1.9335 7.68859 2.52045 6.20086 3.48024 4.96071C4.44003 3.72056 5.733 2.77924 7.208 2.24677ZM1.788 10.75H5.27649C5.38214 13.2004 6.04245 15.5949 7.2077 17.7531C5.73277 17.2206 4.43988 16.2793 3.48015 15.0392C2.52042 13.799 1.93351 12.3113 1.788 10.75ZM12.7917 17.7534C13.957 15.5951 14.6174 13.2005 14.723 10.75H18.212C18.0665 12.3115 17.4795 13.7992 16.5196 15.0394C15.5598 16.2796 14.2668 17.2209 12.7917 17.7534H12.7917Z" fill="#00a4a6"/>
</svg>
