<svg width="20" height="20" viewBox="0 0 20 20" fill="none" xmlns="http://www.w3.org/2000/svg">
<g clip-path="url(#clip0_35_322)">
<path d="M14.0284 18.9531C10.8565 18.2537 7.96333 16.6292 5.71488 14.2851C3.37037 12.0368 1.74595 9.14309 1.0474 5.97071C0.921875 5.33936 0.952523 4.6869 1.13668 4.0701C1.32083 3.45329 1.65292 2.89083 2.10404 2.43165L2.75541 1.78028C3.27166 1.26551 3.97095 0.97644 4.69999 0.97644C5.42903 0.97644 6.12832 1.26551 6.64457 1.78028L7.81791 2.95362C8.24508 3.37626 8.48433 3.97456 8.46635 4.57521C8.44225 5.19754 8.17964 5.78673 7.73295 6.22071L6.90727 7.04591C7.50997 8.37609 8.35002 9.58529 9.38627 10.6143C10.4237 11.6596 11.6452 12.5045 12.9893 13.1065L13.8643 12.1826C14.2868 11.7614 14.859 11.5249 15.4556 11.5249C16.0522 11.5249 16.6244 11.7614 17.0469 12.1826L18.2197 13.3555C18.4752 13.6108 18.6778 13.9139 18.816 14.2475C19.0925 14.9147 19.0925 15.6849 18.816 16.3521C18.5547 16.9828 18.04 17.4242 17.5684 17.8965C17.2032 18.2575 16.7705 18.543 16.295 18.7367C15.5806 19.0277 14.7864 19.0957 14.0284 18.9531ZM4.70024 2.47511C4.37181 2.47457 4.04806 2.60846 3.81596 2.84083L3.16459 3.4922C2.88623 3.77878 2.68209 4.12903 2.56993 4.51248C2.45777 4.89593 2.44099 5.30097 2.52104 5.69239C3.16381 8.56833 4.64424 11.1894 6.77543 13.2246C8.81096 15.3554 11.4319 16.8356 14.3077 17.4785C14.699 17.5586 15.104 17.542 15.4874 17.43C15.8708 17.318 16.2211 17.1141 16.5079 16.8359L17.1592 16.1836C17.3914 15.9515 17.5254 15.6281 17.5254 15.2998C17.5254 14.9715 17.3914 14.6481 17.1592 14.416L15.9864 13.2432C15.7004 12.97 15.2108 12.97 14.9248 13.2432L14.003 14.165C13.5886 14.5794 12.9286 14.7084 12.3887 14.4805C10.8733 13.8032 9.49587 12.8521 8.32571 11.6748C7.15294 10.509 6.20441 9.1376 5.52738 7.62892C5.41031 7.35442 5.37816 7.05113 5.43508 6.75818C5.492 6.46523 5.63537 6.19605 5.84672 5.98536L6.6724 5.15968C6.98801 4.86472 7.08828 4.33663 6.75736 4.01417L5.58404 2.84083C5.35207 2.60855 5.02852 2.47466 4.70024 2.47511Z" fill="#00A4A6"/>
</g>
<defs>
<clipPath id="clip0_35_322">
<rect width="20" height="20" fill="white"/>
</clipPath>
</defs>
</svg>
