<svg fill="#FFFFFF" xmlns="http://www.w3.org/2000/svg"  viewBox="0 0 50 50" width="50px" height="50px"><path d="M 34.253906 7.0097656 C 32.222698 7.0709686 30.128999 7.6256818 28.111328 8.5957031 C 27.047891 9.1069637 26.00426 9.7405352 24.988281 10.472656 C 21.664755 8.0826083 17.963658 6.7759311 14.496094 7.0332031 C 13.268088 7.1243141 12.070459 7.4082864 10.929688 7.9082031 C 7.1948952 9.5453873 4.9144732 13.167694 4.2285156 17.496094 C 3.5425581 21.824494 4.3881281 26.912691 6.8652344 31.820312 C 10.962703 39.940825 18.28089 45.203896 25.001953 44.994141 L 25.001953 45.001953 C 25.117711 45.001953 25.227281 44.982732 25.341797 44.978516 C 27.499863 44.983834 29.735281 44.437614 31.888672 43.402344 C 35.924015 41.462302 39.731417 37.87208 42.455078 33.085938 C 45.178739 28.299793 46.32089 23.194552 45.927734 18.734375 C 45.534579 14.274197 43.562085 10.402417 40.023438 8.3886719 C 38.254115 7.3817993 36.285115 6.9485627 34.253906 7.0097656 z M 34.287109 9.0019531 C 35.992546 8.9468227 37.605253 9.3132348 39.035156 10.126953 C 41.894962 11.754389 43.582235 14.924144 43.933594 18.910156 C 44.284952 22.896168 43.255507 27.636517 40.716797 32.097656 C 38.884522 35.317414 36.523081 37.92502 33.996094 39.785156 C 35.900353 37.111326 37.001953 33.881304 37.001953 31.001953 C 37.001953 27.36533 35.735315 23.415775 33.84375 20.460938 A 1.0001 1.0001 0 0 0 33.001953 20.001953 A 1.0001 1.0001 0 0 0 32.470703 20.152344 L 24.470703 25.152344 L 25.53125 26.849609 L 32.570312 22.451172 C 33.973948 24.976008 35.001953 28.162371 35.001953 31.001953 C 35.001953 33.466581 33.945526 36.56332 32.140625 38.953125 C 30.389195 41.272131 28.008384 42.889779 25.251953 42.984375 C 23.719812 42.96434 22.265348 42.613969 20.966797 41.875 C 18.10699 40.247563 16.419717 37.075855 16.068359 33.089844 C 15.716999 29.103833 16.746446 24.363483 19.285156 19.902344 C 21.823866 15.441205 25.374127 12.134186 28.980469 10.400391 C 30.783639 9.533493 32.581672 9.0570836 34.287109 9.0019531 z M 15.451172 9.0058594 C 17.993962 9.0247972 20.73711 10.005745 23.351562 11.777344 C 21.157371 13.678185 19.159341 16.078609 17.546875 18.912109 C 14.823214 23.698253 13.681063 28.803495 14.074219 33.263672 C 14.292177 35.736311 15.012737 38.014657 16.199219 39.910156 C 13.275996 37.814201 10.575207 34.734593 8.6503906 30.919922 C 6.3424969 26.347543 5.5955825 21.644147 6.203125 17.810547 C 6.8106675 13.976947 8.7102135 11.06505 11.732422 9.7402344 C 12.886457 9.2345053 14.141991 8.996109 15.451172 9.0058594 z"/></svg>